<?xml version="1.0" encoding="UTF-8" standalone="no"?>
<!-- Created with Inkscape (http://www.inkscape.org/) -->

<svg
   width="87.839996mm"
   height="80.695999mm"
   viewBox="0 0 87.839996 80.695999"
   version="1.1"
   id="svg1761"
   inkscape:version="1.1.2 (0a00cf5339, 2022-02-04)"
   sodipodi:docname="resultadomoderado.svg"
   xmlns:inkscape="http://www.inkscape.org/namespaces/inkscape"
   xmlns:sodipodi="http://sodipodi.sourceforge.net/DTD/sodipodi-0.dtd"
   xmlns="http://www.w3.org/2000/svg"
   xmlns:svg="http://www.w3.org/2000/svg">
  <sodipodi:namedview
     id="namedview1763"
     pagecolor="#ffffff"
     bordercolor="#666666"
     borderopacity="1.0"
     inkscape:pageshadow="2"
     inkscape:pageopacity="0.0"
     inkscape:pagecheckerboard="0"
     inkscape:document-units="mm"
     showgrid="false"
     inkscape:zoom="0.65032267"
     inkscape:cx="386.7311"
     inkscape:cy="561.25984"
     inkscape:window-width="1920"
     inkscape:window-height="999"
     inkscape:window-x="0"
     inkscape:window-y="27"
     inkscape:window-maximized="1"
     inkscape:current-layer="layer1" />
  <defs
     id="defs1758" />
  <g
     inkscape:label="Capa 1"
     inkscape:groupmode="layer"
     id="layer1">
    <g
       id="g2201"
       transform="translate(-1.6461739,-37.766075)">
      <path
         d="M 47.054051,39.167115 C 24.580343,38.364369 5.295658,55.304052 3.2107414,77.677218 2.4886935,85.389029 3.8677018,92.77646 6.8617267,99.312197 l -0.056885,0.02434 0.73025,1.475843 c 0.01614,0.0326 0.056621,0.0487 0.089165,0.0326 L 21.019052,94.203622 c 0.03175,-0.0164 0.04763,-0.05688 0.03175,-0.08916 l -0.64823,-1.313657 0.0079,-0.0082 c -2.352108,-5.303314 -3.07442,-11.450114 -1.558358,-17.775243 2.450042,-10.217414 13.104812,-19.56726 23.553208,-20.686183 17.491604,-1.87325 31.657396,12.317677 30.604354,29.062891 -0.219604,3.503084 -1.095375,6.811698 -2.484438,9.820275 l 0.0344,0.01614 -0.616479,1.313656 c -0.01852,0.03254 0,0.07303 0.03175,0.08917 l 13.361458,6.325119 c 0.0344,0.0161 0.07408,0 0.08996,-0.0325 l 0.203729,-0.42968 0.0635,0.0325 C 86.127717,95.614645 87.654363,90.148883 88.019488,84.334664 89.527613,60.518196 71.086155,40.026481 47.054051,39.167115 Z"
         fill="#ffffff"
         id="path4"
         style="stroke-width:0.264583" />
      <path
         d="m 83.360176,102.35332 c -0.209021,0 -0.420688,-0.0487 -0.616479,-0.13785 L 69.382238,95.890341 c -0.34925,-0.16219 -0.616479,-0.45429 -0.746125,-0.81915 -0.129645,-0.36486 -0.11377,-0.754063 0.05556,-1.102783 l 0.478896,-1.013619 c 0.02381,-0.105304 0.05821,-0.202671 0.0979,-0.30824 1.362604,-2.935552 2.159,-6.07351 2.360083,-9.325504 0.486833,-7.695406 -2.434167,-15.180204 -8.014229,-20.516056 -5.574771,-5.335587 -13.258271,-7.914481 -21.063479,-7.079191 -9.816042,1.054364 -20.055416,10.047287 -22.359937,19.640285 -1.386417,5.765535 -0.875771,11.612298 1.476375,16.899466 0.01852,0.04048 0.0344,0.08096 0.05027,0.121709 l 0.566208,1.143264 c 0.171979,0.348721 0.195792,0.737923 0.07408,1.102784 -0.121708,0.36486 -0.381,0.664897 -0.73025,0.835289 L 8.2407351,102.09376 c -0.7138459,0.35666 -1.5901459,0.0648 -1.9388667,-0.65696 L 5.5634163,99.960955 C 5.4903913,99.823108 5.4499101,99.66912 5.4337705,99.515133 3.9571309,96.21472 2.9022372,92.735714 2.285758,89.17601 1.6285331,85.364687 1.474281,81.455997 1.839406,77.55551 2.3669851,71.903481 3.9571309,66.494868 6.5614247,61.475193 9.0847559,56.62591 12.451579,52.320081 16.581989,48.695289 c 4.130146,-3.624791 8.8265,-6.414293 13.962062,-8.287543 5.304896,-1.938073 10.879667,-2.822046 16.560271,-2.611173 6.051021,0.219075 11.861271,1.630098 17.279937,4.192587 2.595563,1.23243 5.087938,2.732617 7.400396,4.451879 2.286,1.702859 4.421188,3.640932 6.336771,5.757334 1.920875,2.116402 3.640666,4.435739 5.109104,6.884723 1.486958,2.473325 2.735792,5.092435 3.701521,7.800974 2.018771,5.63589 2.846916,11.539273 2.465916,17.564365 -0.373062,5.862902 -1.87325,11.490589 -4.46352,16.712675 -0.0635,0.12991 -0.145521,0.24341 -0.243417,0.34872 l -0.0079,0.0243 c -0.161395,0.34872 -0.452437,0.61621 -0.817562,0.74612 -0.171979,0.0405 -0.341313,0.073 -0.505354,0.073 z m -11.617854,-8.401052 11.06752,5.238485 C 85.016467,94.50366 86.307634,89.483985 86.638363,84.261904 87.344801,73.079289 83.587717,62.350964 76.068259,54.047281 68.546155,45.743598 58.227405,40.9512 47.006426,40.553796 c -0.494771,-0.0164 -0.997479,-0.02434 -1.484312,-0.02434 -21.119042,0 -38.9606893,16.11286 -40.9320997,37.293814 -0.6736292,7.184496 0.5516562,14.426142 3.5290124,20.9296 0.040746,0.0971 0.073025,0.186531 0.097367,0.283633 l 11.0352413,-5.465498 -0.06615,-0.137847 c -0.03969,-0.08096 -0.0635,-0.153988 -0.08996,-0.235215 -1.217084,-2.789502 -1.979084,-5.732992 -2.262188,-8.757708 -0.309562,-3.227388 -0.07408,-6.495521 0.706438,-9.722908 0.632354,-2.643453 1.783291,-5.278967 3.423708,-7.808913 1.563688,-2.424642 3.511021,-4.670954 5.775854,-6.65771 2.262188,-1.994694 4.738688,-3.632729 7.350125,-4.873625 2.725208,-1.297252 5.484812,-2.1082 8.194146,-2.392098 4.429125,-0.470429 8.755062,0.0082 12.850812,1.443302 1.947333,0.681302 3.831167,1.573213 5.590646,2.659856 1.727729,1.070504 3.360208,2.319338 4.828646,3.730361 6.164791,5.903383 9.403291,14.174522 8.85825,22.681141 -0.219605,3.486944 -1.053042,6.852179 -2.473855,10.006542 -0.02381,0.113506 -0.05821,0.227012 -0.105833,0.332581 z"
         fill="#e6e6e6"
         id="path6"
         style="stroke-width:0.264583" />
      <path
         d="M 8.9630475,96.109151 16.232739,92.638612 C 14.957447,89.208289 14.269531,85.502535 14.293343,81.650731 H 6.2613872 c -0.016404,5.084233 0.9411229,9.96606 2.7016603,14.45842 z"
         fill="#ff3333"
         id="path8"
         style="stroke-width:0.264583" />
      <path
         d="m 76.877884,82.88316 c 0,0.02434 0,0.05688 0,0.08123 -0.137583,3.576108 -0.867833,6.990027 -2.100791,10.152591 l 7.392458,3.154363 c 1.606021,-4.038335 2.563812,-8.41719 2.733146,-13.006917 0,-0.03254 0,-0.07303 0,-0.105568 0.01587,-0.510646 0.02381,-1.013619 0.02381,-1.516327 h -8.030104 c 0.0079,0.413543 0,0.827087 -0.01852,1.240631 z"
         fill="#008f7a"
         id="path10"
         style="stroke-width:0.264583" />
      <path
         d="m 19.039968,65.253973 c 2.733146,-4.362715 6.514042,-7.987507 10.9855,-10.541794 l -4.008437,-6.941344 c -5.606521,3.211248 -10.353146,7.768431 -13.784527,13.233929 -0.210873,0.340784 -0.421746,0.681302 -0.624681,1.030023 l 6.953249,4.013994 c 0.153459,-0.267758 0.3175,-0.52705 0.478896,-0.794808 z"
         fill="#ffa733"
         id="path12"
         style="stroke-width:0.264583" />
      <path
         d="m 62.185572,55.320456 c 4.291541,2.683933 7.879291,6.373812 10.435166,10.720123 l 6.950604,-4.013994 C 76.359301,56.544948 71.848155,51.898335 66.437426,48.524898 66.014093,48.257404 65.585468,48.00605 65.154197,47.754696 l -4.005792,6.941343 c 0.346604,0.202671 0.687917,0.413544 1.037167,0.624417 z"
         fill="#69c943"
         id="path14"
         style="stroke-width:0.264583" />
      <path
         d="m 73.237218,67.143362 c 2.320395,4.338373 3.640666,9.285023 3.659187,14.507369 h 8.030104 C 84.902697,75.074247 83.249051,68.854423 80.328051,63.388925 80.084634,62.9349 79.83328,62.480875 79.571342,62.034787 l -6.950604,4.013994 c 0.209021,0.356658 0.420688,0.721783 0.61648,1.094581 z"
         fill="#15b046"
         id="path16"
         style="stroke-width:0.264583" />
      <path
         d="m 46.680989,50.600819 c 0.02381,0 0.05821,0 0.08202,0 5.233458,0.194733 10.125604,1.662377 14.377458,4.09522 l 4.005791,-6.941343 c -5.344583,-3.057261 -11.496145,-4.914106 -18.08427,-5.157523 -0.03175,0 -0.07144,0 -0.105834,0 -0.460375,-0.01614 -0.923395,-0.02434 -1.378479,-0.02434 v 8.003911 c 0.365125,0.0079 0.738188,0.01614 1.103313,0.02408 z"
         fill="#c3d948"
         id="path18"
         style="stroke-width:0.264583" />
      <path
         d="M 14.317156,80.620708 C 14.520885,75.30126 16.036947,70.33847 18.561072,66.048781 L 11.607823,62.034787 C 8.4518726,67.42726 6.5452851,73.647085 6.2936663,80.32067 c 0,0.03254 0,0.07302 0,0.105569 -0.01614,0.405342 -0.024342,0.810948 -0.024342,1.21629 h 8.0319567 c 0,-0.307975 0.0079,-0.624417 0.01588,-0.932392 -0.0079,-0.03254 -0.0079,-0.05689 0,-0.08943 z"
         fill="#ff7733"
         id="path20"
         style="stroke-width:0.264583" />
      <path
         d="m 30.893301,54.233812 c 4.389438,-2.335477 9.395354,-3.649133 14.684375,-3.649133 v -8.003646 c -6.651625,0 -12.94077,1.654175 -18.457333,4.589727 -0.373062,0.194734 -0.738187,0.405342 -1.103312,0.608277 l 4.008437,6.941344 c 0.283104,-0.170392 0.576792,-0.332581 0.867833,-0.486569 z"
         fill="#ffda33"
         id="path22"
         style="stroke-width:0.264583" />
      <path
         d="m 44.670155,49.944123 -6.402916,18.87802 c -0.201083,0.608013 0.243417,1.240632 0.894292,1.240632 H 51.97001 c 0.642937,0 1.095374,-0.632619 0.894291,-1.240632 l -6.410854,-18.87802 c -0.291042,-0.851429 -1.49225,-0.851429 -1.783292,0 z"
         fill="#2b2b2b"
         id="path24"
         style="stroke-width:0.264583" />
      <path
         d="m 56.605509,92.891289 c 6.090709,-6.086475 6.090709,-15.954639 0,-22.041379 -6.090708,-6.086475 -15.962312,-6.086475 -22.05302,2.65e-4 -6.090708,6.086475 -6.090708,15.954639 0,22.041114 6.090708,6.086475 15.962312,6.086475 22.05302,0 z"
         fill="#e6e6e6"
         id="path26"
         style="stroke-width:0.264583" />
      <path
         d="m 59.904864,81.415516 c -0.322792,8.603721 -7.559146,15.318052 -16.168688,14.993673 -3.254375,-0.121708 -6.238875,-1.232429 -8.680979,-3.032654 2.627313,2.408237 6.093354,3.924829 9.93775,4.070614 8.609542,0.324379 15.845896,-6.389952 16.171333,-14.993672 0.201084,-5.34379 -2.320396,-10.168732 -6.320896,-13.128625 3.262313,2.984235 5.241396,7.330545 5.06148,12.090664 z"
         fill="#d6d6d6"
         id="path28"
         style="stroke-width:0.264583" />
      <path
         d="m 51.401155,87.467331 c 3.212042,-3.210984 3.212042,-8.417454 0,-11.628438 -3.212041,-3.210983 -8.421687,-3.210983 -11.633729,0 -3.214687,3.210984 -3.214687,8.417454 0,11.628438 3.212042,3.211247 8.421688,3.210983 11.633729,0 z"
         fill="#333333"
         id="path30"
         style="stroke-width:0.264583" />
      <path
         d="m 50.901093,75.382222 c 1.280583,1.50839 2.018771,3.486944 1.947333,5.61975 -0.171979,4.532842 -3.984625,8.076671 -8.527521,7.906279 -1.915583,-0.07303 -3.65125,-0.794543 -5.005916,-1.938072 1.444625,1.69492 3.561291,2.813843 5.963708,2.903008 4.534958,0.170392 8.355542,-3.365236 8.524875,-7.906279 0.0979,-2.627313 -1.045104,-5.011473 -2.902479,-6.584686 z"
         fill="#0d0d0d"
         id="path32"
         style="stroke-width:0.264583" />
      <rect
         x="13.023343"
         y="106.55781"
         width="65.087502"
         height="11.90625"
         rx="5.953125"
         fill="#ffa733"
         id="rect75"
         style="stroke-width:0.264583" />
      <path
         d="m 30.149822,114.23073 h 0.767292 v -2.65642 l 1.053042,2.65642 h 0.280458 l 1.04775,-2.65642 v 2.65642 h 0.851958 v -3.78354 h -1.11125 l -0.873125,2.35479 -0.883708,-2.35479 h -1.132417 z m 6.582834,-0.62442 c -0.619125,0 -1.063625,-0.47625 -1.063625,-1.24883 v -0.0423 c 0,-0.762 0.396875,-1.24354 1.053041,-1.24354 0.661459,0 1.053042,0.50271 1.053042,1.23825 v 0.0423 c 0,0.762 -0.402167,1.25412 -1.042458,1.25412 z m -0.01588,0.68263 c 1.180041,0 1.952625,-0.82021 1.952625,-1.94734 v -0.0423 c 0,-1.13771 -0.809625,-1.905 -1.947334,-1.905 -1.121833,0 -1.947333,0.79904 -1.947333,1.92617 v 0.0423 c 0,1.10596 0.756708,1.92617 1.942042,1.92617 z m 3.431645,-0.72496 v -2.45004 h 0.338667 c 0.799042,0 1.132417,0.41804 1.132417,1.19591 v 0.0423 c 0,0.78316 -0.359834,1.21179 -1.121834,1.21179 z m -0.85725,0.66675 h 1.232959 c 1.328208,0 1.989666,-0.75671 1.989666,-1.88913 v -0.0423 c 0,-1.13242 -0.656166,-1.85208 -1.984375,-1.85208 h -1.23825 z m 3.839104,0 h 2.550584 v -0.66675 h -1.698625 v -0.94192 H 45.2734 v -0.62442 h -1.291166 v -0.8837 h 1.613958 v -0.66675 H 43.13028 Z m 3.145896,0 h 0.851959 v -1.4605 h 0.370416 l 0.904875,1.4605 h 0.910167 l -1.000125,-1.60867 c 0.4445,-0.13229 0.777875,-0.43392 0.777875,-1.00542 v -0.0212 c 0,-0.78317 -0.566208,-1.14829 -1.4605,-1.14829 h -1.354667 z m 0.851959,-2.04259 v -1.08479 h 0.481541 c 0.41275,0 0.645584,0.13229 0.645584,0.51859 v 0.0212 c 0,0.36513 -0.216959,0.54504 -0.645584,0.54504 z m 2.407708,2.04259 h 0.804333 l 0.259292,-0.84138 h 1.370542 l 0.259291,0.84138 h 0.894292 l -1.227667,-3.78354 H 50.77938 Z m 1.751542,-3.08504 0.497416,1.63512 h -1.000125 z m 3.209395,2.41829 v -2.45004 h 0.338667 c 0.799042,0 1.132417,0.41804 1.132417,1.19591 v 0.0423 c 0,0.78316 -0.359834,1.21179 -1.121834,1.21179 z m -0.85725,0.66675 h 1.232959 c 1.328208,0 1.989666,-0.75671 1.989666,-1.88913 v -0.0423 c 0,-1.13242 -0.656166,-1.85208 -1.984375,-1.85208 h -1.23825 z m 5.603875,-0.62442 c -0.619125,0 -1.063625,-0.47625 -1.063625,-1.24883 v -0.0423 c 0,-0.762 0.396875,-1.24354 1.053042,-1.24354 0.661458,0 1.053042,0.50271 1.053042,1.23825 v 0.0423 c 0,0.762 -0.402167,1.25412 -1.042459,1.25412 z m -0.01588,0.68263 c 1.180042,0 1.952625,-0.82021 1.952625,-1.94734 v -0.0423 c 0,-1.13771 -0.809625,-1.905 -1.947333,-1.905 -1.121833,0 -1.947333,0.79904 -1.947333,1.92617 v 0.0423 c 0,1.10596 0.756708,1.92617 1.942041,1.92617 z"
         fill="#ffffff"
         id="path77"
         style="stroke-width:0.264583" />
    </g>
  </g>
</svg>
