<?xml version="1.0" encoding="UTF-8" standalone="no"?>
<!-- Created with Inkscape (http://www.inkscape.org/) -->

<svg
   width="87.839996mm"
   height="80.695999mm"
   viewBox="0 0 87.839996 80.695999"
   version="1.1"
   id="svg1761"
   inkscape:version="1.1.2 (0a00cf5339, 2022-02-04)"
   sodipodi:docname="resultadobuena.svg"
   xmlns:inkscape="http://www.inkscape.org/namespaces/inkscape"
   xmlns:sodipodi="http://sodipodi.sourceforge.net/DTD/sodipodi-0.dtd"
   xmlns="http://www.w3.org/2000/svg"
   xmlns:svg="http://www.w3.org/2000/svg">
  <sodipodi:namedview
     id="namedview1763"
     pagecolor="#ffffff"
     bordercolor="#666666"
     borderopacity="1.0"
     inkscape:pageshadow="2"
     inkscape:pageopacity="0.0"
     inkscape:pagecheckerboard="0"
     inkscape:document-units="mm"
     showgrid="false"
     inkscape:zoom="0.65032267"
     inkscape:cx="386.7311"
     inkscape:cy="561.25984"
     inkscape:window-width="1920"
     inkscape:window-height="999"
     inkscape:window-x="0"
     inkscape:window-y="27"
     inkscape:window-maximized="1"
     inkscape:current-layer="layer1" />
  <defs
     id="defs1758" />
  <g
     inkscape:label="Capa 1"
     inkscape:groupmode="layer"
     id="layer1">
    <g
       id="g2394"
       transform="translate(0.05587539,-0.01125241)">
      <path
         d="M 45.629605,1.4233484 C 23.023605,0.61424836 3.6232952,17.689928 1.5259452,40.242218 c -0.72627997,7.77373 0.66093,15.22016 3.67268,21.80855 l -0.0572,0.0246 0.73449,1.48776 c 0.0164,0.0325 0.0572,0.0489 0.0897,0.0325 l 13.4754898,-6.69449 c 0.0318,-0.0164 0.0476,-0.0571 0.0318,-0.09 l -0.65352,-1.32424 0.008,-0.008 c -2.36538,-5.3459 -3.09298,-11.54192 -1.56633,-17.91758 2.46591,-10.29944 13.18154,-19.72416 23.69343,-20.85208 17.59479,-1.88833 31.84525,12.41637 30.78427,29.29599 -0.2196,3.53113 -1.10331,6.8662 -2.49766,9.89886 l 0.0318,0.0164 -0.61913,1.32398 c -0.0159,0.0328 0,0.0735 0.0318,0.09 l 13.44348,6.37592 c 0.0317,0.0164 0.0714,0 0.0873,-0.0328 l 0.20638,-0.43313 0.0635,0.0326 c 2.45004,-4.95353 3.98462,-10.46269 4.34975,-16.32374 1.51871,-24.00723 -17.03123,-44.6632496 -41.20621,-45.5297596 z"
         fill="#ffffff"
         id="path4"
         style="stroke-width:0.264583" />
      <path
         d="m 82.152685,65.116228 c -0.21166,0 -0.42598,-0.0492 -0.62177,-0.13917 l -13.44083,-6.37567 c -0.3519,-0.16351 -0.61913,-0.45772 -0.75142,-0.8255 -0.12964,-0.36803 -0.11377,-0.76041 0.0582,-1.11177 l 0.48154,-1.02183 c 0.0238,-0.10636 0.0556,-0.20425 0.0979,-0.31062 1.37054,-2.9591 2.16958,-6.12245 2.37331,-9.40011 0.48948,-7.75732 -2.44739,-15.30191 -8.06185,-20.68063 -5.60652,-5.37845 -13.335,-7.97798 -21.18784,-7.13608 -9.87425,1.06283 -20.17448,10.12772 -22.49223,19.79772 -1.397,5.81183 -0.88106,11.70543 1.48432,17.03493 0.0185,0.041 0.0344,0.0818 0.0503,0.1225 l 0.5715,1.15279 c 0.17198,0.35137 0.19579,0.74374 0.0741,1.11152 -0.12435,0.36777 -0.38364,0.67045 -0.73554,0.8419 l -13.4746998,6.69475 c -0.71808,0.35957 -1.59967,0.0653 -1.95051,-0.66225 l -0.74268,-1.48749 c -0.0736,-0.13917 -0.1143,-0.29448 -0.13044,-0.44979 -1.48537,-3.32687 -2.54635,-6.83339 -3.16679997,-10.42194 -0.66093,-3.84175 -0.81598,-7.78166 -0.44873,-11.71337 0.53049,-5.69753 2.13015997,-11.14954 4.74979997,-16.20943 2.53814,-4.88818 5.9250698,-9.2284 10.0787698,-12.8823 4.15396,-3.6538896 8.87941,-6.4658796 14.04673,-8.3539496 5.34458,-1.97009004 10.9511,-2.86094004 16.6661,-2.64848004 6.08806,0.22066 11.93006,1.64306004 17.38313,4.22593004 2.61143,1.24248 5.11704,2.75484 7.44273,4.48759 2.30187,1.7166196 4.44764,3.6702996 6.37381,5.8036396 1.9341,2.1336 3.66448,4.47146 5.14085,6.94002 1.4949,2.4929 2.75167,5.13318 3.72269,7.86342 2.032,5.68086 2.86544,11.63187 2.48179,17.70512 -0.37571,5.91 -1.88648,11.58266 -4.48998,16.84681 -0.0661,0.13071 -0.14552,0.24527 -0.24342,0.35163 l -0.008,0.0243 c -0.16404,0.35163 -0.45773,0.62124 -0.8255,0.75221 -0.17992,0.0407 -0.34396,0.0736 -0.50536,0.0736 z m -11.68664,-8.46852 11.13102,5.28056 c 2.21985,-4.72467 3.51631,-9.78456 3.85233,-15.04871 0.70908,-11.27204 -3.06917,-22.08636 -10.6336,-30.45672 -7.56709,-8.3700896 -17.95463,-13.2011196 -29.23381,-13.6098996 -0.50007,-0.0164 -1.00542,-0.0243 -1.4949,-0.0243 -21.2434,0 -39.1906098,16.2419796 -41.1739298,37.5925296 -0.67733,7.24244 0.5551,14.54176 3.55018,21.09761 0.041,0.0979 0.0735,0.18785 0.0982,0.28601 l 11.0990098,-5.50942 -0.0662,-0.1389 c -0.0397,-0.0818 -0.0635,-0.15531 -0.0873,-0.23707 -1.22502,-2.81199 -1.99231,-5.77903 -2.27806,-8.82809 -0.30957,-3.25331 -0.0741,-6.54737 0.70908,-9.80069 0.63764,-2.66488 1.79652,-5.3213 3.44487,-7.87162 1.57427,-2.44422 3.53484,-4.70826 5.81025,-6.71089 2.27807,-2.01084 4.7678,-3.6621 7.39511,-4.91279 2.74108,-1.30783 5.51656,-2.12513 8.24177,-2.41141 4.45823,-0.47413 8.80798,0.008 12.92754,1.45495 1.96056,0.68685 3.85233,1.58591 5.62504,2.68128 1.73831,1.07897 3.37873,2.33786 4.85511,3.76 6.20183,5.95074 9.45885,14.28829 8.91116,22.86291 -0.2196,3.51499 -1.06098,6.90721 -2.48708,10.08697 -0.0265,0.11457 -0.0582,0.22887 -0.10848,0.33523 z"
         fill="#e6e6e6"
         id="path6"
         style="stroke-width:0.264583" />
      <path
         d="m 7.3123852,58.822058 7.3133498,-3.49859 c -1.28323,-3.45757 -1.97644,-7.19322 -1.95263,-11.07599 H 4.5945852 c -0.0246,5.12525 0.93848,10.04597 2.7178,14.57458 z"
         fill="#ff3333"
         id="path8"
         style="stroke-width:0.264583" />
      <path
         d="m 75.630705,45.489968 c 0,0.0246 0,0.0574 0,0.0817 -0.13758,3.60495 -0.87312,7.04612 -2.11402,10.23409 l 7.43479,3.17976 c 1.61661,-4.07088 2.57969,-8.48466 2.75167,-13.11143 0,-0.0325 0,-0.0735 0,-0.10609 0.0159,-0.51515 0.0238,-1.02183 0.0238,-1.52877 h -8.08037 c 0,0.41699 0,0.83397 -0.0159,1.25069 z"
         fill="#008f7a"
         id="path10"
         style="stroke-width:0.264583" />
      <path
         d="m 17.448835,27.719488 c 2.74902,-4.39764 6.55373,-8.05153 11.049,-10.62619 l -4.0296,-6.99717 c -5.64092,3.23691 -10.414,7.83087 -13.86708,13.34029 -0.2122,0.34316 -0.42439,0.68659 -0.6283898,1.03796 l 6.9945298,4.04627 c 0.15346,-0.26987 0.3175,-0.53128 0.48154,-0.80116 z"
         fill="#ffa733"
         id="path12"
         style="stroke-width:0.264583" />
      <path
         d="m 60.843145,17.706338 c 4.318,2.70563 7.92427,6.42487 10.49602,10.80611 l 6.99294,-4.04627 c -3.23056,-5.52556 -7.76817,-10.20948 -13.21329,-13.60991 -0.42333,-0.26961 -0.85725,-0.52308 -1.28852,-0.77655 l -4.03225,6.99717 c 0.35189,0.20426 0.70114,0.41672 1.0451,0.62945 z"
         fill="#69c943"
         id="path14"
         style="stroke-width:0.264583" />
      <path
         d="m 71.966235,29.624228 c 2.33362,4.37303 3.66447,9.35937 3.68035,14.62352 h 8.08037 c -0.0238,-6.6294 -1.68804,-12.89897 -4.62756,-18.40812 -0.24342,-0.458 -0.49742,-0.91572 -0.75935,-1.36525 l -6.99294,4.04627 c 0.21167,0.35957 0.4154,0.72734 0.61913,1.10358 z"
         fill="#15b046"
         id="path16"
         style="stroke-width:0.264583" />
      <path
         d="m 45.253895,12.948858 c 0.0238,0 0.0582,0 0.082,0 5.26521,0.19633 10.18646,1.67588 14.46213,4.12803 l 4.03225,-6.99717 c -5.37898,-3.0815996 -11.56494,-4.9535296 -18.19275,-5.1985296 -0.0317,0 -0.0741,0 -0.10584,0 -0.46566,-0.0164 -0.93133,-0.0246 -1.38641,-0.0246 v 8.0679396 c 0.36777,0.008 0.73289,0.0161 1.1086,0.0243 z"
         fill="#c3d948"
         id="path18"
         style="stroke-width:0.264583" />
      <path
         d="m 12.691625,43.209518 c 0.20373,-5.36231 1.73038,-10.36478 4.26773,-14.68887 l -6.9947898,-4.04627 c -3.17473,5.43586 -5.0927,11.70543 -5.34564,18.43273 0,0.0325 0,0.0736 0,0.10609 -0.0161,0.40878 -0.0243,0.81757 -0.0243,1.22635 h 8.0785198 c 0,-0.31062 0.0106,-0.62945 0.0185,-0.94007 0,-0.0328 0,-0.0572 0,-0.09 z"
         fill="#ff7733"
         id="path20"
         style="stroke-width:0.264583" />
      <path
         d="m 29.373605,16.610958 c 4.41325,-2.35426 9.45092,-3.6785 14.77169,-3.6785 V 4.8647884 c -6.69396,0 -13.0175,1.6674 -18.56846,4.6265 -0.37571,0.19606 -0.74083,0.40878 -1.1086,0.6130396 l 4.0296,6.9969 c 0.28575,-0.17145 0.58208,-0.33496 0.87577,-0.49027 z"
         fill="#ffda33"
         id="path22"
         style="stroke-width:0.264583" />
      <path
         d="m 76.757835,43.569088 -18.99973,-6.44922 c -0.61119,-0.20452 -1.24883,0.24501 -1.24883,0.89906 v 12.9069 c 0,0.64585 0.63764,1.10358 1.24883,0.89906 l 18.99973,-6.44922 c 0.85725,-0.30242 0.85725,-1.51236 0,-1.80658 z"
         fill="#2b2b2b"
         id="path24"
         style="stroke-width:0.264583" />
      <path
         d="m 55.236625,55.577208 c 6.12511,-6.13516 6.12511,-16.0827 0,-22.21786 -6.12775,-6.13542 -16.05756,-6.13542 -22.18531,0 -6.12511,6.13516 -6.12511,16.0827 0,22.21786 6.12775,6.13542 16.05756,6.13542 22.18531,0 z"
         fill="#e6e6e6"
         id="path26"
         style="stroke-width:0.264583" />
      <path
         d="m 58.549205,44.010418 c -0.32543,8.67277 -7.60677,15.44108 -16.26658,15.11406 -3.27289,-0.12251 -6.27592,-1.24249 -8.73125,-3.057 2.64319,2.42755 6.12775,3.95605 9.99596,4.10316 8.65981,0.32702 15.94115,-6.44102 16.26658,-15.11379 0.20373,-5.38666 -2.33362,-10.25049 -6.35793,-13.23393 3.28877,3.00804 5.27314,7.38928 5.09322,12.1875 z"
         fill="#d6d6d6"
         id="path28"
         style="stroke-width:0.264583" />
      <path
         d="m 50.000525,50.109858 c 3.23056,-3.23691 3.23056,-8.48493 0,-11.72184 -3.23321,-3.23691 -8.47196,-3.23691 -11.70252,0 -3.23321,3.23691 -3.23321,8.48493 0,11.72184 3.23056,3.23665 8.46931,3.23665 11.70252,0 z"
         fill="#333333"
         id="path30"
         style="stroke-width:0.264583" />
      <path
         d="m 49.497815,37.928968 c 1.29117,1.5203 2.032,3.51499 1.95792,5.66473 -0.16934,4.56935 -4.0058,8.14149 -8.57515,7.96978 -1.92617,-0.0736 -3.67506,-0.80116 -5.03767,-1.95369 1.45257,1.70842 3.58511,2.83634 6.00075,2.9263 4.56142,0.17171 8.40582,-3.39223 8.57515,-7.96978 0.0979,-2.64848 -1.0504,-5.05143 -2.921,-6.63734 z"
         fill="#0d0d0d"
         id="path32"
         style="stroke-width:0.264583" />
      <rect
         x="12.379422"
         y="69.3321"
         width="65.087502"
         height="11.90625"
         rx="5.953125"
         fill="#69c943"
         id="rect75"
         style="stroke-width:0.264583" />
      <path
         d="m 36.146935,77.005018 h 1.55575 c 0.87313,0 1.32821,-0.36513 1.32821,-1.05834 v -0.0212 c 0,-0.508 -0.26458,-0.78846 -0.75671,-0.889 0.42334,-0.12171 0.61384,-0.41275 0.61384,-0.80963 v -0.0212 c 0,-0.64559 -0.42863,-0.98425 -1.25413,-0.98425 h -1.48696 z m 0.83609,-0.59267 v -1.08479 h 0.54504 c 0.46567,0 0.65617,0.17992 0.65617,0.52917 v 0.0212 c 0,0.34396 -0.1905,0.53446 -0.61384,0.53446 z m 0,-1.63512 v -0.96838 h 0.508 c 0.40216,0 0.58208,0.14288 0.58208,0.46038 v 0.0212 c 0,0.33867 -0.16404,0.48684 -0.57679,0.48684 z m 4.18306,2.286 c 1.02129,0 1.59808,-0.53446 1.59808,-1.56634 v -2.27541 h -0.86254 v 2.2225 c 0,0.6932 -0.22225,0.93662 -0.73025,0.93662 -0.51858,0 -0.70379,-0.27517 -0.70379,-0.90487 v -2.25425 h -0.86254 v 2.30716 c 0,1.00542 0.56621,1.53459 1.56104,1.53459 z m 2.38125,-0.0582 h 2.55058 v -0.66675 h -1.69862 v -0.94192 h 1.29116 v -0.62442 h -1.29116 v -0.8837 h 1.61396 v -0.66675 h -2.46592 z m 3.14854,0 h 0.762 v -2.69346 l 1.57692,2.69346 h 0.85725 v -3.78354 h -0.762 v 2.49237 l -1.43934,-2.49237 h -0.99483 z m 3.71211,0 h 0.80433 l 0.25929,-0.84138 h 1.37054 l 0.25929,0.84138 h 0.8943 l -1.22767,-3.78354 h -1.11654 z m 1.75154,-3.08504 0.49741,1.63512 h -1.00012 z"
         fill="#ffffff"
         id="path77"
         style="stroke-width:0.264583" />
    </g>
  </g>
</svg>
