<?xml version="1.0" encoding="UTF-8" standalone="no"?>
<!-- Created with Inkscape (http://www.inkscape.org/) -->

<svg
   width="87.839996mm"
   height="80.695999mm"
   viewBox="0 0 87.839996 80.695999"
   version="1.1"
   id="svg1761"
   inkscape:version="1.1.2 (0a00cf5339, 2022-02-04)"
   sodipodi:docname="resultado crítico.svg"
   xmlns:inkscape="http://www.inkscape.org/namespaces/inkscape"
   xmlns:sodipodi="http://sodipodi.sourceforge.net/DTD/sodipodi-0.dtd"
   xmlns="http://www.w3.org/2000/svg"
   xmlns:svg="http://www.w3.org/2000/svg">
  <sodipodi:namedview
     id="namedview1763"
     pagecolor="#ffffff"
     bordercolor="#666666"
     borderopacity="1.0"
     inkscape:pageshadow="2"
     inkscape:pageopacity="0.0"
     inkscape:pagecheckerboard="0"
     inkscape:document-units="mm"
     showgrid="false"
     inkscape:zoom="0.65032267"
     inkscape:cx="386.7311"
     inkscape:cy="561.25984"
     inkscape:window-width="1920"
     inkscape:window-height="999"
     inkscape:window-x="0"
     inkscape:window-y="27"
     inkscape:window-maximized="1"
     inkscape:current-layer="layer1" />
  <defs
     id="defs1758" />
  <g
     inkscape:label="Capa 1"
     inkscape:groupmode="layer"
     id="layer1">
    <g
       id="g1916"
       transform="translate(-24.430529,-31.664394)">
      <path
         d="M 69.836811,33.065169 C 47.365749,32.262423 28.080006,49.2029 25.994824,71.585063 25.272776,79.297137 26.652049,86.684833 29.64581,93.2211 l -0.05689,0.02434 0.73025,1.475846 c 0.01614,0.03228 0.05662,0.04868 0.08917,0.03228 l 13.393473,-6.64157 c 0.0344,-0.01614 0.05027,-0.05662 0.0344,-0.08917 l -0.650875,-1.313656 0.01058,-0.0082 C 40.841124,81.3974 40.118812,75.2506 41.63752,68.925206 44.087562,58.707263 54.739686,49.357152 65.188082,48.237965 c 17.49425,-1.87325 31.657396,12.318206 30.604354,29.064214 -0.219604,3.503348 -1.095375,6.811963 -2.481792,9.82054 l 0.03175,0.01614 -0.616479,1.313656 c -0.01587,0.03254 0,0.07303 0.03175,0.08943 l 13.361455,6.325129 c 0.0344,0.0164 0.0741,0 0.09,-0.03228 l 0.20373,-0.429948 0.0635,0.03254 c 2.43417,-4.91437 3.96081,-10.380133 4.32594,-16.194616 C 112.31037,54.417309 93.876853,33.924801 69.836811,33.065169 Z"
         fill="#ffffff"
         id="path47"
         style="stroke-width:0.264583" />
      <path
         d="m 106.14558,96.254019 c -0.21167,0 -0.42333,-0.04868 -0.61912,-0.137848 L 92.164998,89.790777 c -0.34925,-0.16219 -0.616479,-0.45429 -0.746125,-0.81915 -0.129645,-0.36486 -0.11377,-0.754063 0.05821,-1.102783 l 0.47625,-1.013619 c 0.02646,-0.105569 0.05821,-0.202936 0.0979,-0.30824 1.362604,-2.935552 2.159,-6.074039 2.362729,-9.325768 0.486828,-7.695936 -2.434172,-15.180998 -8.01688,-20.51685 -5.574771,-5.336117 -13.255625,-7.91501 -21.060833,-7.079721 -9.818688,1.054365 -20.055417,10.047552 -22.359937,19.641079 -1.389063,5.7658 -0.875771,11.612827 1.476375,16.899996 0.01588,0.04075 0.03175,0.08123 0.04763,0.121708 l 0.568854,1.143529 c 0.169333,0.348721 0.193146,0.737923 0.07144,1.102784 -0.121708,0.36486 -0.381,0.664897 -0.727604,0.835289 l -13.387916,6.625431 c -0.714111,0.356659 -1.590146,0.06482 -1.939132,-0.65696 l -0.738187,-1.475846 c -0.07303,-0.137848 -0.113506,-0.291835 -0.129911,-0.446087 -1.476639,-3.300413 -2.531268,-6.779419 -3.147747,-10.339388 -0.657225,-3.811587 -0.811478,-7.720277 -0.446353,-11.620764 0.527315,-5.652294 2.117461,-11.061436 4.722019,-16.08111 2.523067,-4.849548 5.88989,-9.155642 10.018977,-12.780434 4.130146,-3.625056 8.8265,-6.414558 13.962062,-8.287808 5.31548,-1.938073 10.89025,-2.822046 16.560271,-2.611173 6.051021,0.218811 11.861271,1.629834 17.279937,4.192588 2.598209,1.232429 5.087938,2.732881 7.400396,4.451879 2.288646,1.703123 4.421188,3.641196 6.336777,5.757862 1.92087,2.116402 3.64066,4.43574 5.1091,6.884723 1.48696,2.47359 2.73579,5.0927 3.70152,7.80124 2.01877,5.636154 2.84692,11.539801 2.46592,17.565158 -0.37307,5.863166 -1.87325,11.491118 -4.46352,16.713464 -0.0635,0.12991 -0.14552,0.243417 -0.24342,0.348721 l -0.008,0.02434 c -0.16139,0.34872 -0.45244,0.616214 -0.81756,0.746125 -0.17198,0.04048 -0.33338,0.07303 -0.50271,0.07303 z m -11.609915,-8.40158 11.064875,5.23875 c 2.20662,-4.687093 3.49779,-9.707033 3.82852,-14.929379 C 110.1355,66.978931 106.37841,56.250077 98.858957,47.94613 91.328915,39.641917 81.010165,34.849255 69.789186,34.443913 c -0.494771,-0.01614 -0.997479,-0.02434 -1.484312,-0.02434 -21.126979,0 -38.959102,16.11339 -40.938714,37.295137 -0.665427,7.185025 0.551656,14.418734 3.529012,20.930394 0.04075,0.09737 0.07303,0.186531 0.09737,0.283898 L 42.02646,87.463239 41.96032,87.325391 c -0.03969,-0.08096 -0.0635,-0.153987 -0.08731,-0.235214 -1.217083,-2.789502 -1.979083,-5.733256 -2.264833,-8.757973 -0.306917,-3.227652 -0.07144,-6.495785 0.706437,-9.723437 0.632354,-2.643452 1.785938,-5.279231 3.423709,-7.809177 1.566333,-2.424907 3.513666,-4.671219 5.775854,-6.657975 2.264833,-1.994959 4.738687,-3.632994 7.350125,-4.873625 2.727854,-1.297517 5.484812,-2.108465 8.194145,-2.392363 4.431771,-0.470429 8.755063,0.0082 12.853458,1.443567 1.944688,0.681038 3.828521,1.573213 5.588,2.659856 1.72773,1.070504 3.360209,2.319338 4.828646,3.730361 6.164792,5.903647 9.403292,14.175316 8.85825,22.681935 -0.219604,3.487208 -1.053042,6.852443 -2.473854,10.00707 -0.02381,0.113507 -0.05556,0.227013 -0.105833,0.332582 z"
         fill="#e6e6e6"
         id="path49"
         style="stroke-width:0.264583" />
      <path
         d="m 31.755068,90.009587 7.268369,-3.470804 C 37.750791,83.10846 37.060228,79.402442 37.086687,75.550638 h -8.033279 c -0.02434,5.084497 0.933185,9.966324 2.70166,14.458949 z"
         fill="#ff3333"
         id="path51"
         style="stroke-width:0.264583" />
      <path
         d="m 99.671228,76.783331 c 0,0.02408 0,0.05662 0,0.08096 -0.14023,3.576373 -0.87048,6.990291 -2.103438,10.15312 l 7.39246,3.154363 c 1.60602,-4.038335 2.56381,-8.417454 2.73314,-13.007446 0,-0.03254 0,-0.07303 0,-0.105304 0.0159,-0.51091 0.0238,-1.013883 0.0238,-1.516592 h -8.030107 c 0,0.413544 -0.0079,0.827088 -0.01587,1.240896 z"
         fill="#008f7a"
         id="path53"
         style="stroke-width:0.264583" />
      <path
         d="m 41.830666,59.15335 c 2.735791,-4.362979 6.516687,-7.987771 10.9855,-10.542323 l -4.008438,-6.941608 c -5.603875,3.211248 -10.3505,7.768696 -13.782939,13.234458 -0.211138,0.340784 -0.422011,0.681302 -0.624681,1.030023 l 6.951662,4.013994 c 0.148167,-0.267494 0.309562,-0.52705 0.478896,-0.794544 z"
         fill="#ffa733"
         id="path55"
         style="stroke-width:0.264583" />
      <path
         d="m 84.968332,49.219305 c 4.291541,2.684197 7.879291,6.373812 10.435166,10.720651 l 6.953252,-4.014258 C 99.142061,50.443796 94.630915,45.797184 89.220186,42.423482 88.799498,42.155988 88.368228,41.904634 87.939603,41.653015 l -4.008438,6.941873 c 0.34925,0.202671 0.695854,0.413544 1.037167,0.624417 z"
         fill="#69c943"
         id="path57"
         style="stroke-width:0.264583" />
      <path
         d="m 96.019978,61.04274 c 2.320395,4.338637 3.640666,9.285287 3.659187,14.507898 h 8.030105 c -0.0238,-6.576748 -1.67746,-12.796838 -4.59846,-18.2626 -0.24342,-0.454025 -0.49477,-0.90805 -0.75671,-1.354138 l -6.950602,4.014259 c 0.216959,0.356658 0.420688,0.721518 0.61648,1.094581 z"
         fill="#15b046"
         id="path59"
         style="stroke-width:0.264583" />
      <path
         d="m 69.463749,44.499667 c 0.02646,0 0.05821,0 0.08202,0 5.233458,0.194469 10.125604,1.662377 14.377458,4.095221 l 4.005791,-6.941608 c -5.344583,-3.057261 -11.496145,-4.914371 -18.081624,-5.157788 -0.0344,0 -0.07408,0 -0.105834,0 -0.463021,-0.01614 -0.926041,-0.02434 -1.381125,-0.02434 v 8.004174 c 0.373063,0.0079 0.738188,0.01614 1.103313,0.02434 z"
         fill="#c3d948"
         id="path61"
         style="stroke-width:0.264583" />
      <path
         d="m 37.102562,74.520615 c 0.201083,-5.319713 1.719791,-10.282767 4.24127,-14.572456 L 34.391905,55.9339 c -3.15595,5.392738 -5.062537,11.612563 -5.313891,18.286677 0,0.03254 0,0.07303 0,0.105569 -0.0164,0.405342 -0.02434,0.810948 -0.02434,1.216289 h 8.033015 c 0,-0.308239 0.0079,-0.624416 0.01588,-0.932656 0,-0.03228 0,-0.05662 0,-0.08916 z"
         fill="#ff7733"
         id="path63"
         style="stroke-width:0.264583" />
      <path
         d="m 53.676061,48.132661 c 4.389438,-2.335477 9.395354,-3.649398 14.684375,-3.649398 v -8.00391 c -6.651625,0 -12.938125,1.654439 -18.457333,4.589991 -0.373062,0.194469 -0.738187,0.405342 -1.103312,0.608277 l 4.008437,6.941609 c 0.28575,-0.170392 0.576792,-0.332582 0.867833,-0.486569 z"
         fill="#ffda33"
         id="path65"
         style="stroke-width:0.264583" />
      <path
         d="m 36.184457,76.653421 18.888604,6.398419 c 0.608542,0.20267 1.240896,-0.243417 1.240896,-0.892175 V 69.363092 c 0,-0.640556 -0.632354,-1.094846 -1.240896,-0.892175 l -18.888604,6.398418 c -0.851429,0.300038 -0.851429,1.500188 0,1.784086 z"
         fill="#2b2b2b"
         id="path67"
         style="stroke-width:0.264583" />
      <path
         d="m 79.396207,86.787227 c 6.088062,-6.087004 6.088062,-15.955433 0,-22.042173 -6.090708,-6.086739 -15.962312,-6.086739 -22.053021,0 -6.088062,6.08674 -6.088062,15.955433 0,22.042173 6.090709,6.086739 15.962313,6.086739 22.053021,0 z"
         fill="#e6e6e6"
         id="path69"
         style="stroke-width:0.264583" />
      <path
         d="m 82.690269,75.315423 c -0.325437,8.603985 -7.561791,15.318581 -16.171333,14.994202 -3.251729,-0.121444 -6.238875,-1.232429 -8.680979,-3.032919 2.629959,2.408502 6.093354,3.925094 9.940396,4.071144 8.606896,0.324379 15.84325,-6.390481 16.168687,-14.994467 0.201084,-5.344054 -2.320396,-10.16926 -6.320896,-13.129154 3.262313,2.984236 5.241396,7.330811 5.064125,12.091194 z"
         fill="#d6d6d6"
         id="path71"
         style="stroke-width:0.264583" />
      <path
         d="m 74.191853,81.36274 c 3.212041,-3.211248 3.212041,-8.417455 0,-11.628702 -3.212042,-3.211248 -8.421688,-3.211248 -11.633729,0 -3.214688,3.211247 -3.214688,8.417454 0,11.628702 3.212041,3.211247 8.421687,3.211247 11.633729,0 z"
         fill="#333333"
         id="path73"
         style="stroke-width:0.264583" />
      <path
         d="m 73.683853,69.281865 c 1.280583,1.508389 2.018771,3.487208 1.947333,5.620014 -0.171979,4.533106 -3.984625,8.076936 -8.527521,7.906544 -1.915583,-0.07303 -3.65125,-0.794544 -5.005916,-1.938073 1.444625,1.694921 3.561291,2.813844 5.963708,2.903273 4.534958,0.170127 8.355542,-3.3655 8.527521,-7.906808 0.09525,-2.627577 -1.04775,-5.011738 -2.905125,-6.58495 z"
         fill="#0d0d0d"
         id="path75"
         style="stroke-width:0.264583" />
      <rect
         x="35.806103"
         y="100.45402"
         width="65.087502"
         height="11.90625"
         rx="5.953125"
         fill="#eb5757"
         id="rect79"
         style="stroke-width:0.264583" />
      <path
         d="m 59.266707,108.18514 c 0.931334,0 1.603375,-0.48154 1.698625,-1.41817 h -0.841375 c -0.06879,0.48684 -0.396875,0.72496 -0.867833,0.72496 -0.624417,0 -0.98425,-0.45508 -0.98425,-1.23825 v -0.0423 c 0,-0.78317 0.381,-1.24884 0.978958,-1.24884 0.47625,0 0.73025,0.24342 0.79375,0.6985 h 0.878417 c -0.08996,-0.93133 -0.767292,-1.37583 -1.677458,-1.37583 -1.074209,0 -1.878542,0.78317 -1.878542,1.93146 v 0.0423 c 0,1.16417 0.661458,1.92617 1.899708,1.92617 z m 2.25425,-0.0582 h 0.851958 v -1.4605 h 0.370417 l 0.904875,1.4605 h 0.910167 l -1.000125,-1.60867 c 0.4445,-0.13229 0.777875,-0.43391 0.777875,-1.00541 v -0.0212 c 0,-0.78317 -0.566209,-1.14829 -1.4605,-1.14829 h -1.354667 z m 0.851958,-2.04258 v -1.08479 h 0.481542 c 0.41275,0 0.645583,0.13229 0.645583,0.51858 v 0.0212 c 0,0.36512 -0.216958,0.54504 -0.645583,0.54504 z m 2.722563,2.04258 h 0.862542 v -3.78354 h -0.862542 z m 0.100542,-4.03754 h 0.576791 l 0.534459,-0.73554 h -0.830792 z m 2.341562,4.03754 h 0.862542 v -3.11679 h 1.021291 V 104.3434 H 66.51629 v 0.66675 h 1.021292 z m 2.436813,0 h 0.862541 v -3.78354 h -0.862541 z m 3.405187,0.0582 c 0.931333,0 1.603375,-0.48154 1.698625,-1.41817 h -0.841375 c -0.06879,0.48684 -0.396875,0.72496 -0.867833,0.72496 -0.624417,0 -0.98425,-0.45508 -0.98425,-1.23825 v -0.0423 c 0,-0.78317 0.381,-1.24884 0.978958,-1.24884 0.47625,0 0.73025,0.24342 0.79375,0.6985 h 0.878417 c -0.08996,-0.93133 -0.767292,-1.37583 -1.677459,-1.37583 -1.074208,0 -1.878541,0.78317 -1.878541,1.93146 v 0.0423 c 0,1.16417 0.661458,1.92617 1.899708,1.92617 z m 4.016375,-0.68263 c -0.619125,0 -1.063625,-0.47625 -1.063625,-1.24883 v -0.0423 c 0,-0.762 0.396875,-1.24354 1.053042,-1.24354 0.661458,0 1.053041,0.5027 1.053041,1.23825 v 0.0423 c 0,0.762 -0.402166,1.25412 -1.042458,1.25412 z m -0.01587,0.68263 c 1.180042,0 1.952625,-0.82021 1.952625,-1.94733 v -0.0423 c 0,-1.13771 -0.809625,-1.905 -1.947333,-1.905 -1.121834,0 -1.947334,0.79904 -1.947334,1.92617 v 0.0423 c 0,1.10596 0.756709,1.92617 1.942042,1.92617 z"
         fill="#ffffff"
         id="path81"
         style="stroke-width:0.264583" />
    </g>
  </g>
</svg>
