<svg width="240" height="50" viewBox="0 0 240 50" fill="none" xmlns="http://www.w3.org/2000/svg">
<path d="M21.4311 14.3018C19.1791 12.0498 18.5202 8.80788 19.4368 5.92749L2.5667 22.7975C2.45284 22.8961 2.34329 22.999 2.23375 23.1086C-0.694112 26.0364 -0.751207 30.7283 2.10661 33.5885C4.96642 36.4463 9.65863 36.3915 12.5865 33.4613C12.8122 33.2356 13.0204 33.0012 13.2089 32.7556L29.6182 16.3463C28.8593 16.5664 28.0673 16.6826 27.2586 16.6826C25.0481 16.6822 22.9784 15.849 21.4311 14.3018Z" fill="white"/>
<path d="M22.2628 3.08061C22.1901 3.15331 22.127 3.23199 22.0576 3.30701L22.4858 2.87878C22.4118 2.94717 22.3345 3.00891 22.2628 3.08061Z" fill="#F2F2F2"/>
<path d="M32.7421 2.95379C31.3352 1.54695 29.4849 0.846191 27.6186 0.846191C25.8384 0.846191 24.0481 1.49284 22.6121 2.76424C22.5696 2.80175 22.5274 2.83993 22.4856 2.87876L22.0574 3.30699C19.3406 6.24647 19.3479 10.7724 22.1357 13.5601C23.5425 14.967 25.3929 15.6677 27.2591 15.6677C28.9013 15.6677 30.5531 15.1197 31.9271 14.0378C32.1645 13.8509 32.3962 13.6528 32.6156 13.4337C35.5441 10.5045 35.6009 5.8126 32.7421 2.95379Z" fill="white"/>
<path d="M47.0477 17.2595C44.2974 14.5112 39.8528 14.4564 36.912 17.0643L36.9011 17.0752L36.2568 17.7196C36.2568 17.7196 36.2571 17.7195 36.2571 17.7192L19.4043 34.572C20.208 34.3257 21.0462 34.1916 21.8986 34.1916H21.9219V34.1836C24.2456 34.1836 26.1875 35.0358 27.7348 36.583C29.922 38.7683 30.6181 41.9381 29.7779 44.7983L46.2148 28.3614C46.4601 28.1729 46.6948 27.9647 46.9205 27.739C49.8507 24.8092 49.9055 20.1193 47.0477 17.2595Z" fill="white"/>
<path d="M16.5396 37.4145C16.4646 37.4895 16.3995 37.5705 16.3281 37.6479L16.8719 37.1041C16.7583 37.2024 16.6491 37.3053 16.5396 37.4145Z" fill="#F2F2F2"/>
<path d="M24.3535 35.6094C24.4551 35.6456 24.5583 35.6774 24.6586 35.7186C24.558 35.6778 24.4551 35.6456 24.3535 35.6094Z" fill="#F2F2F2"/>
<path d="M19.5879 35.5531C19.7047 35.5153 19.8209 35.4741 19.9394 35.4423C19.8209 35.4741 19.7047 35.5153 19.5879 35.5531Z" fill="#F2F2F2"/>
<path d="M25.6426 36.2198C25.7282 36.2716 25.8165 36.3181 25.9005 36.3735C25.8165 36.3181 25.7286 36.2716 25.6426 36.2198Z" fill="#F2F2F2"/>
<path d="M25.0059 35.8785C25.1015 35.9237 25.1991 35.9642 25.293 36.0136C25.1987 35.9642 25.1015 35.9237 25.0059 35.8785Z" fill="#F2F2F2"/>
<path d="M17.6484 36.5071C17.7742 36.4211 17.8991 36.3328 18.0285 36.2551C17.8987 36.3328 17.7742 36.4211 17.6484 36.5071Z" fill="#F2F2F2"/>
<path d="M23.6875 35.4075C23.7927 35.4337 23.8986 35.4563 24.0025 35.4875C23.8986 35.4566 23.7927 35.434 23.6875 35.4075Z" fill="#F2F2F2"/>
<path d="M18.2891 36.1133C18.4072 36.0486 18.5241 35.9809 18.6446 35.9231C18.5241 35.9809 18.4072 36.0486 18.2891 36.1133Z" fill="#F2F2F2"/>
<path d="M23.0098 35.2712C23.117 35.2875 23.2249 35.3005 23.3318 35.3214C23.2249 35.3005 23.117 35.2875 23.0098 35.2712Z" fill="#F2F2F2"/>
<path d="M18.9346 35.7989C19.0508 35.7488 19.1663 35.6957 19.2841 35.6519C19.1659 35.6957 19.0508 35.7491 18.9346 35.7989Z" fill="#F2F2F2"/>
<path d="M21.8984 35.1794C21.7985 35.1794 21.6985 35.1891 21.5986 35.1931C21.7178 35.1881 21.8373 35.1814 21.9565 35.1824C21.9372 35.1821 21.918 35.1794 21.8984 35.1794Z" fill="#F2F2F2"/>
<path d="M20.9248 35.2508C21.0436 35.2352 21.1621 35.2169 21.2817 35.2073C21.1621 35.2172 21.0436 35.2352 20.9248 35.2508Z" fill="#F2F2F2"/>
<path d="M20.252 35.3706C20.3698 35.3441 20.487 35.3149 20.6058 35.2939C20.4873 35.3149 20.3698 35.3441 20.252 35.3706Z" fill="#F2F2F2"/>
<path d="M28.7786 44.6676C28.6448 45.0915 28.4725 45.5065 28.2617 45.9075C28.4725 45.5065 28.6448 45.0915 28.7786 44.6676Z" fill="#F2F2F2"/>
<path d="M29.1208 42.7195C29.1026 43.157 29.0458 43.5942 28.9502 44.0257C29.0458 43.5945 29.1026 43.1573 29.1208 42.7195Z" fill="#F2F2F2"/>
<path d="M22.3232 35.1993C22.4315 35.2056 22.5397 35.2086 22.6476 35.2196C22.5397 35.2086 22.4315 35.2056 22.3232 35.1993Z" fill="#F2F2F2"/>
<path d="M26.2754 36.6488C26.3421 36.6996 26.4122 36.7447 26.4775 36.7982C26.4118 36.7447 26.3421 36.6996 26.2754 36.6488Z" fill="#F2F2F2"/>
<path d="M16.8955 37.0854C17.0708 36.9308 17.2507 36.7847 17.4356 36.6489C17.2504 36.7847 17.0704 36.9308 16.8955 37.0854Z" fill="#F2F2F2"/>
<path d="M29.0598 41.4109C28.8536 39.8952 28.1744 38.4419 27.0192 37.2873C26.8453 37.1134 26.664 36.9504 26.4775 36.798C26.4121 36.7446 26.3424 36.6994 26.2753 36.6487C26.1515 36.5547 26.0287 36.4584 25.9002 36.3735C25.8162 36.318 25.7282 36.2716 25.6423 36.2198C25.5261 36.1497 25.4112 36.0764 25.292 36.0136C25.1981 35.9642 25.1008 35.9237 25.0049 35.8785C24.8897 35.8241 24.7755 35.7663 24.658 35.7182C24.5578 35.6773 24.4549 35.6455 24.3529 35.609C24.2364 35.5675 24.1206 35.5227 24.0024 35.4871C23.8985 35.4559 23.7923 35.4337 23.6874 35.4071C23.5685 35.3773 23.4504 35.3444 23.3305 35.3208C23.224 35.2999 23.1161 35.287 23.0085 35.2707C22.888 35.2524 22.7682 35.2315 22.647 35.2192C22.5391 35.2083 22.4309 35.2053 22.3227 35.199C22.2005 35.192 22.0787 35.1827 21.9562 35.1817C21.837 35.1807 21.7175 35.1877 21.5984 35.1924C21.4921 35.1967 21.3862 35.198 21.2804 35.2066C21.1612 35.2166 21.0427 35.2345 20.9235 35.2501C20.8176 35.2641 20.711 35.2747 20.6055 35.2933C20.487 35.3142 20.3695 35.3434 20.2516 35.37C20.1471 35.3935 20.0422 35.4134 19.9383 35.4413C19.8201 35.4732 19.7039 35.5144 19.5867 35.5522C19.4855 35.5851 19.3832 35.6136 19.283 35.6511C19.1648 35.6949 19.0496 35.7481 18.9334 35.7982C18.8371 35.8397 18.7392 35.8765 18.6443 35.9223C18.5238 35.9801 18.4069 36.0481 18.2888 36.1125C18.2014 36.1603 18.1125 36.2028 18.0268 36.2543C17.8974 36.332 17.7726 36.4203 17.6468 36.5062C17.5764 36.5544 17.5033 36.5972 17.4343 36.648C17.2494 36.7838 17.0695 36.9298 16.8942 37.0845C16.8869 37.0908 16.8793 37.0961 16.872 37.1024C16.872 37.1024 16.8716 37.1028 16.8713 37.1031L16.3276 37.6468C16.3222 37.6525 16.3173 37.6585 16.3119 37.6641C13.6185 40.6033 13.6331 45.1122 16.4119 47.8934C17.819 49.2995 19.6697 50 21.5356 50C23.4616 50 25.4043 49.2534 26.8914 47.7662C27.1172 47.5405 27.3253 47.3061 27.5138 47.0605C27.8013 46.6937 28.0503 46.3069 28.2607 45.9063C28.4715 45.5053 28.6438 45.0903 28.7776 44.6664C28.8447 44.4546 28.9017 44.2405 28.9496 44.0247C29.0448 43.5935 29.1016 43.1563 29.1202 42.7185C29.1388 42.2806 29.1188 41.8438 29.0598 41.4109Z" fill="white"/>
<path d="M64.9902 30.5666L70.8642 30.5068C71.0916 31.8575 71.7041 32.5991 73.5197 32.5803C75.0861 32.5644 75.7918 31.9524 75.7826 31.0264C75.7738 30.1364 74.8792 29.7183 72.3128 29.3885C67.3225 28.7982 65.2072 27.3601 65.1679 23.4798C65.1257 19.3503 68.7723 17.3199 73.0799 17.2756C77.6721 17.2292 80.8919 18.763 81.3643 23.2081L75.5974 23.2666C75.3357 22.0233 74.653 21.4255 73.1936 21.4406C71.8053 21.4544 71.0996 22.0664 71.1084 22.9209C71.1171 23.8109 71.9754 24.1579 74.2567 24.42C79.425 25.0078 81.9304 26.3355 81.9713 30.3224C82.0161 34.737 78.7616 36.7637 73.5995 36.8159C68.2941 36.8703 65.1746 34.6952 64.9902 30.5666Z" fill="white"/>
<path d="M84.4414 17.659L90.8137 17.5946L90.8426 20.4427C91.8216 18.6527 93.7635 17.0662 96.6467 17.0369C99.1032 17.0118 100.823 18.0628 101.733 20.0828C103.313 17.8948 105.511 16.9466 107.86 16.9228C111.385 16.8868 113.971 19.1393 114.018 23.8026L114.142 35.9774L107.77 36.0422L107.657 24.9355C107.638 23.0484 106.702 22.1325 105.243 22.1476C103.534 22.1647 102.406 23.28 102.427 25.3092L102.537 36.0961L96.2354 36.1597L96.1225 25.053C96.1033 23.1659 95.1681 22.25 93.7087 22.2646C91.9997 22.2822 90.8718 23.3971 90.8927 25.4263L91.0023 36.2132L84.6299 36.2784L84.4414 17.659Z" fill="white"/>
<path d="M116.654 30.7888C116.609 26.4105 120.294 24.6639 126.488 24.6004L128.268 24.5824L128.264 24.1556C128.246 22.3755 127.806 21.2054 125.777 21.2259C124.033 21.2439 123.402 22.2819 123.272 23.4583L117.291 23.5193C117.53 19.0312 121.032 16.7879 126.123 16.7361C131.249 16.6838 134.545 18.7506 134.596 23.6987L134.718 35.7673L128.524 35.83L128.502 33.6587C127.626 35.0202 126.001 36.2828 123.011 36.3137C119.665 36.3475 116.694 34.7406 116.654 30.7888ZM128.316 29.3177L128.305 28.1785L126.632 28.1952C124.069 28.2215 122.934 28.7311 122.95 30.262C122.961 31.3301 123.68 31.9986 125.175 31.984C126.991 31.9656 128.333 30.9196 128.316 29.3177Z" fill="white"/>
<path d="M138.162 17.1122L144.534 17.0478L144.572 20.7496C145.718 17.9608 147.664 16.7309 150.548 16.7363L150.609 22.6814C146.727 22.6145 144.604 23.8465 144.634 26.8372L144.724 35.6651L138.351 35.7299L138.162 17.1122Z" fill="white"/>
<path d="M154.737 29.5829L154.653 21.288L152.411 21.311L152.366 16.9679L154.609 16.9449L154.569 13.065L160.942 13.0002L160.981 16.8806L164.648 16.8429L164.692 21.186L161.026 21.2237L161.104 28.9128C161.118 30.2656 161.8 30.8643 163.011 30.8521C163.723 30.8446 164.256 30.7322 164.823 30.5131L164.873 35.3541C164.056 35.5761 162.848 35.9089 161.353 35.9239C157.152 35.967 154.782 33.962 154.737 29.5829Z" fill="white"/>
<path d="M166.703 26.3634L166.7 26.0791C166.639 20.0981 171.05 16.2797 176.675 16.2224C181.766 16.1701 186.174 19.045 186.242 25.738L186.259 27.411L173.159 27.544C173.361 29.9983 174.8 31.4076 177.078 31.385C179.179 31.3632 180.059 30.3934 180.295 29.1447L186.276 29.0841C185.749 33.2909 182.534 35.7084 176.909 35.7653C171.071 35.8251 166.765 32.4514 166.703 26.3634ZM180.028 23.8785C179.898 21.6369 178.783 20.4024 176.718 20.4233C174.795 20.443 173.491 21.7017 173.193 23.9479L180.028 23.8785Z" fill="white"/>
<path d="M188.138 30.0623C188.093 25.6833 191.778 23.9371 197.973 23.874L199.753 23.856L199.748 23.4283C199.73 21.6483 199.29 20.4786 197.262 20.4995C195.517 20.517 194.887 21.555 194.757 22.7318L188.776 22.7925C189.015 18.3051 192.517 16.0615 197.608 16.0096C202.734 15.9574 206.03 18.0246 206.081 22.9726L206.204 35.0404L200.009 35.1036L199.987 32.9322C199.111 34.2938 197.486 35.5563 194.495 35.5868C191.149 35.6211 188.178 34.0133 188.138 30.0623ZM199.8 28.5908L199.789 27.4508L198.116 27.4679C195.553 27.4942 194.418 28.0043 194.434 29.5343C194.444 30.6024 195.164 31.2717 196.659 31.2563C198.474 31.2387 199.817 30.1919 199.8 28.5908Z" fill="white"/>
<path d="M209.646 16.3856L216.017 16.3208L216.047 19.1689C217.026 17.3793 218.967 15.7928 221.851 15.7635C224.307 15.7384 226.027 16.789 226.937 18.8094C228.517 16.6214 230.715 15.6732 233.064 15.649C236.589 15.6134 239.175 17.8659 239.222 22.5292L239.346 34.704L232.974 34.7688L232.861 23.6621C232.842 21.775 231.907 20.8591 230.448 20.8737C228.739 20.8913 227.611 22.0062 227.632 24.0354L227.741 34.8223L221.44 34.8863L221.327 23.7796C221.309 21.8925 220.373 20.9766 218.914 20.9916C217.205 21.0088 216.077 22.1241 216.098 24.1533L216.208 34.9402L209.836 35.0046L209.646 16.3856Z" fill="white"/>
</svg>
