<svg width="302" height="65" viewBox="0 0 302 65" fill="none" xmlns="http://www.w3.org/2000/svg">
<g clip-path="url(#clip0_2594_4790)">
<path d="M81.9678 40.0672L89.3806 39.9915C89.6676 41.7019 90.4405 42.6412 92.7317 42.6179C94.7085 42.5978 95.599 41.8221 95.5874 40.6497C95.5763 39.5224 94.4473 38.9928 91.2086 38.575C84.9111 37.8274 82.2416 36.0058 82.192 31.0908C82.1387 25.8602 86.7407 23.2878 92.1767 23.2322C97.972 23.1734 102.035 25.1162 102.631 30.7461L95.3537 30.8207C95.0234 29.2454 94.1619 28.4887 92.3202 28.5073C90.5681 28.5253 89.6776 29.3005 89.6887 30.3828C89.6998 31.5102 90.7829 31.9497 93.6618 32.2817C100.184 33.0262 103.346 34.708 103.397 39.758C103.454 45.3497 99.3468 47.9163 92.8325 47.983C86.1366 48.0519 82.1999 45.2963 81.9678 40.0672Z" fill="#168CF6"/>
<path d="M106.514 23.7178L114.555 23.6357L114.592 27.2434C115.827 24.9765 118.278 22.967 121.916 22.9299C125.016 22.8981 127.186 24.2288 128.335 26.788C130.329 24.0165 133.102 22.8155 136.068 22.7853C140.515 22.7398 143.779 25.5928 143.838 31.4997L143.995 46.9209L135.953 47.003L135.811 32.9347C135.787 30.5444 134.607 29.3842 132.764 29.4027C130.608 29.425 129.185 30.8372 129.211 33.4075L129.349 47.0707L121.397 47.1518L121.255 33.0834C121.231 30.6932 120.05 29.533 118.209 29.5515C116.052 29.5738 114.629 30.986 114.655 33.5563L114.793 47.2195L106.752 47.3016L106.514 23.7178Z" fill="#168CF6"/>
<path d="M147.166 40.3489C147.11 34.8027 151.76 32.5909 159.577 32.5104L161.823 32.4877L161.817 31.9465C161.794 29.6918 161.24 28.2102 158.68 28.2361C156.478 28.2589 155.683 29.5737 155.518 31.0638L147.971 31.1411C148.272 25.4567 152.692 22.6148 159.116 22.5496C165.586 22.4834 169.745 25.1014 169.809 31.3688L169.964 46.655L162.147 46.735L162.119 43.9846C161.013 45.7093 158.963 47.3084 155.189 47.3471C150.966 47.39 147.216 45.354 147.166 40.3489ZM161.884 38.485L161.869 37.0415L159.757 37.0633C156.523 37.0966 155.091 37.7421 155.111 39.6807C155.124 41.0336 156.032 41.8808 157.918 41.8618C160.21 41.839 161.904 40.5136 161.884 38.485Z" fill="#168CF6"/>
<path d="M174.308 23.0257L182.349 22.9436L182.397 27.633C183.843 24.1006 186.299 22.5422 189.938 22.5496L190.015 30.08C185.117 29.9952 182.437 31.5557 182.475 35.3434L182.588 46.5258L174.547 46.6079L174.308 23.0257Z" fill="#168CF6"/>
<path d="M195.225 38.8207L195.119 28.3145L192.289 28.3436L192.233 22.8425L195.063 22.8133L195.013 17.8988L203.055 17.8168L203.105 22.7313L207.732 22.6841L207.788 28.1853L203.161 28.2324L203.26 37.9724C203.277 39.6854 204.138 40.4437 205.666 40.4284C206.565 40.4194 207.237 40.2769 207.953 39.9989L208.016 46.1313C206.985 46.4125 205.461 46.834 203.574 46.853C198.273 46.9076 195.282 44.3675 195.225 38.8207Z" fill="#168CF6"/>
<path d="M210.326 34.7434L210.322 34.3828C210.245 26.807 215.812 21.9703 222.911 21.8978C229.335 21.8321 234.898 25.4736 234.984 33.9507L235.005 36.0699L218.473 36.2388C218.729 39.3471 220.545 41.1326 223.42 41.1035C226.07 41.0765 227.181 39.848 227.48 38.2663L235.027 38.189C234.362 43.5176 230.305 46.5803 223.207 46.6523C215.839 46.7281 210.404 42.4538 210.326 34.7434ZM227.143 31.596C226.979 28.7561 225.571 27.193 222.965 27.2189C220.538 27.2438 218.892 28.8387 218.517 31.6839L227.143 31.596Z" fill="#168CF6"/>
<path d="M237.376 39.4282C237.321 33.882 241.971 31.6701 249.787 31.5902L252.034 31.5669L252.028 31.0257C252.005 28.771 251.451 27.2894 248.891 27.3154C246.689 27.3381 245.893 28.6529 245.729 30.143L238.182 30.2203C238.483 24.5359 242.903 21.6945 249.327 21.6288C255.796 21.5627 259.956 24.1806 260.02 30.448L260.175 45.7342L252.358 45.8142L252.33 43.0638C251.224 44.7885 249.174 46.3876 245.4 46.4263C241.177 46.4692 237.427 44.4332 237.376 39.4282ZM252.094 37.5642L252.08 36.1208L249.968 36.1425C246.733 36.1758 245.302 36.8213 245.322 38.7599C245.335 40.1128 246.243 40.9601 248.129 40.941C250.421 40.9182 252.115 39.5928 252.094 37.5642Z" fill="#168CF6"/>
<path d="M264.519 22.1049L272.56 22.0228L272.596 25.6304C273.832 23.363 276.282 21.354 279.921 21.3169C283.021 21.2852 285.191 22.6159 286.34 25.175C288.334 22.4035 291.107 21.2026 294.072 21.1718C298.52 21.1268 301.784 23.9799 301.843 29.8867L301.999 45.3079L293.958 45.39L293.815 31.3217C293.791 28.9314 292.611 27.7713 290.77 27.7898C288.613 27.812 287.19 29.2243 287.216 31.7946L287.354 45.4578L279.403 45.5388L279.26 31.4705C279.236 29.0802 278.056 27.9201 276.214 27.9386C274.058 27.9608 272.634 29.3731 272.66 31.9434L272.799 45.6066L264.758 45.6887L264.519 22.1049Z" fill="#168CF6"/>
<path d="M42.7247 15.8904L17.1742 41.6262C16.93 41.9466 16.6598 42.2532 16.367 42.5481C12.5691 46.3765 6.47203 46.4586 2.74901 42.7382C-0.970857 39.0146 -0.907549 32.8949 2.89039 29.0691C3.03231 28.9262 3.17475 28.7911 3.32247 28.6625L29.3167 2.4798L42.7247 15.8904Z" fill="#42E4B3"/>
<path d="M28.9081 2.91413C25.1022 6.73414 25.0284 12.8535 28.7433 16.5821C32.4581 20.3107 38.5549 20.2366 42.3608 16.4166C46.1667 12.5966 46.2405 6.47724 42.5256 2.74864C38.8108 -0.979969 32.714 -0.905875 28.9081 2.91413Z" fill="#168CF6"/>
<path d="M60.9504 35.0759C60.6571 35.3704 60.3522 35.642 60.0335 35.8877L35.7334 60.278C38.721 56.4506 38.5215 50.9711 35.0897 47.5297C31.5102 43.9369 25.7291 43.8739 21.9043 47.2899L47.9444 21.1533C51.7661 17.7516 57.5413 17.8231 61.1156 21.4074C64.8291 25.1374 64.7579 31.2544 60.9504 35.0759Z" fill="#168CF6"/>
<path d="M47.931 21.1676L47.0938 22.0079C47.2219 21.8592 47.3559 21.7162 47.4984 21.5732C47.6408 21.4302 47.7833 21.2963 47.931 21.1676Z" fill="#4D4D4D"/>
<path d="M35.7339 60.278L34.5606 61.4557L21.1758 48.0218L21.9049 47.29C25.7297 43.874 31.5103 43.937 35.0903 47.5298C38.5221 50.9712 38.721 56.4507 35.7339 60.278Z" fill="#4D4D4D"/>
<path d="M35.7337 60.278C35.4889 60.5983 35.2182 60.9039 34.9249 61.1983C31.1201 65.0172 25.023 65.0913 21.3069 61.364C17.5933 57.6341 17.6672 51.5144 21.472 47.6955C21.6144 47.5525 21.7569 47.418 21.9046 47.2894C25.7294 43.8734 31.51 43.9364 35.09 47.5292C38.5218 50.9711 38.7207 56.4506 35.7337 60.278Z" fill="#42E4B3"/>
</g>
<defs>
<clipPath id="clip0_2594_4790">
<rect width="302" height="64.1117" fill="white"/>
</clipPath>
</defs>
</svg>
